<svg width="145" height="187" viewBox="0 0 145 187" fill="none" xmlns="http://www.w3.org/2000/svg">
<path d="M13.5015 48H13.4985C6.04349 48 0 57.5256 0 69.276V122.724C0 134.474 6.04349 144 13.4985 144H13.5015C20.9565 144 27 134.474 27 122.724V69.276C27 57.5256 20.9565 48 13.5015 48Z" fill="url(#paint0_linear_26_38)"/>
<path d="M51.5022 23H51.4978C40.7295 23 32 36.8915 32 54.0275V131.973C32 149.109 40.7295 163 51.4978 163H51.5022C62.2705 163 71 149.109 71 131.973V54.0275C71 36.8915 62.2705 23 51.5022 23Z" fill="url(#paint1_linear_26_38)"/>
<path d="M126.061 0H94.9391C84.4793 0 76 10.1871 76 22.7535V164.247C76 176.813 84.4793 187 94.9391 187H126.061C136.521 187 145 176.813 145 164.247V22.7535C145 10.1871 136.521 0 126.061 0Z" fill="url(#paint2_linear_26_38)"/>
<defs>
<linearGradient id="paint0_linear_26_38" x1="25.9759" y1="138.61" x2="-20.8137" y2="87.85" gradientUnits="userSpaceOnUse">
<stop offset="0.149038" stop-color="#ED440D" stop-opacity="0"/>
<stop offset="0.428163" stop-color="#ED440D" stop-opacity="0.259856"/>
<stop offset="0.672377" stop-color="#ED440D"/>
<stop offset="0.918269" stop-color="#9F2E09"/>
</linearGradient>
<linearGradient id="paint1_linear_26_38" x1="69.5207" y1="155.139" x2="1.23598" y2="81.766" gradientUnits="userSpaceOnUse">
<stop offset="0.149038" stop-color="#ED440D" stop-opacity="0"/>
<stop offset="0.428163" stop-color="#ED440D" stop-opacity="0.259856"/>
<stop offset="0.672377" stop-color="#ED440D"/>
<stop offset="0.918269" stop-color="#9F2E09"/>
</linearGradient>
<linearGradient id="paint2_linear_26_38" x1="142.383" y1="176.5" x2="56.3526" y2="54.0568" gradientUnits="userSpaceOnUse">
<stop offset="0.149038" stop-color="#ED440D" stop-opacity="0"/>
<stop offset="0.428163" stop-color="#ED440D" stop-opacity="0.259856"/>
<stop offset="0.672377" stop-color="#ED440D"/>
<stop offset="0.918269" stop-color="#9F2E09"/>
</linearGradient>
</defs>
</svg>
