<svg width="1337" height="544" viewBox="0 0 1337 544" fill="none" xmlns="http://www.w3.org/2000/svg">
<path d="M1005.11 181.658L1091.36 163.72C1093.49 163.277 1095.36 165.177 1094.9 167.302L1054.64 350.295H971.158C968.585 350.295 966.681 347.901 967.261 345.394L1005.11 181.658Z" fill="url(#paint0_linear_5_394)"/>
<path d="M469.412 192.352H336.479L351.534 136.732H739.588L724.564 192.352H591.163L529.069 416.708H407.256L469.412 192.352Z" fill="url(#paint1_linear_5_394)"/>
<path d="M1174.96 195.338H1102.72L1112.35 147.15H1336.84L1327.23 195.338H1259.77L1223.85 347.69H1139L1174.96 195.338Z" fill="#324368"/>
<path d="M416.434 269.806H169.018C165.303 269.845 161.616 269.29 158.173 268.173C154.731 267.057 151.603 265.402 148.974 263.305C146.345 261.208 144.268 258.713 142.865 255.966C141.463 253.218 140.763 250.275 140.807 247.308V202.34H279.69L297.459 134.904H140.807V89.9361C140.763 86.9694 141.463 84.0257 142.865 81.2784C144.268 78.531 146.345 76.0356 148.974 73.939C151.603 71.8425 154.731 70.1872 158.173 69.0707C161.616 67.9542 165.303 67.399 169.018 67.4378H315.227L332.959 0.000975349H84.4915C73.1553 -0.0485105 61.9301 1.78557 51.5293 5.38666C31.3624 12.2125 15.3139 25.0376 6.78193 41.1464C2.25647 49.4383 -0.0530602 58.3928 0.000925034 67.4378V269.806C-0.0530602 278.851 2.25647 287.806 6.78193 296.098C15.3139 312.206 31.3624 325.032 51.5293 331.857C61.9274 335.468 73.1527 337.312 84.4915 337.272H398.666L416.434 269.806Z" fill="url(#paint2_linear_5_394)"/>
<path d="M963.661 270.84L851.04 270.218C850.145 270.213 849.355 270.804 849.107 271.664L829.127 341.015C828.878 341.882 828.08 342.474 827.178 342.461L735.487 341.215C734.186 341.197 733.247 339.961 733.581 338.703L775.401 180.735C777.067 173.846 779.064 168.228 781.399 162.945C785.801 152.683 794.082 144.512 804.488 140.164C809.855 137.87 815.647 136.701 821.497 136.733L994.536 141.875C995.784 141.912 996.693 143.07 996.433 144.29L988.12 183.324C987.923 184.247 987.108 184.907 986.164 184.907H882.008C880.091 184.883 878.189 185.236 876.412 185.948C874.636 186.659 873.022 187.714 871.665 189.049C870.309 190.385 869.237 191.975 868.513 193.725C867.826 195.387 867.465 197.163 867.45 198.956C867.449 199.145 867.426 199.332 867.375 199.514L860.222 225.354C859.87 226.628 860.828 227.888 862.15 227.888H971.985C973.258 227.888 974.206 229.06 973.941 230.305L965.628 269.258C965.43 270.185 964.609 270.846 963.661 270.84Z" fill="#324368"/>
<path d="M241.532 458.923V438.171C241.532 438.171 3.68783e-05 436.832 0 444.865C-3.68783e-05 452.898 241.532 458.923 241.532 458.923Z" fill="url(#paint3_linear_5_394)"/>
<path d="M1011.11 437V457.752C1011.11 457.752 1252.64 459.091 1252.64 451.058C1252.64 443.025 1011.11 437 1011.11 437Z" fill="url(#paint4_linear_5_394)"/>
<path d="M573.96 506L587.8 493.44C588.547 492.72 589.253 492.027 589.92 491.36C590.613 490.693 591.2 490.013 591.68 489.32C592.187 488.627 592.493 487.867 592.6 487.04C592.653 486.533 592.6 486.053 592.44 485.6C592.307 485.12 592.027 484.733 591.6 484.44C591.2 484.147 590.653 484 589.96 484C589.16 483.973 588.453 484.187 587.84 484.64C587.253 485.067 586.76 485.64 586.36 486.36C585.96 487.053 585.68 487.787 585.52 488.56L578.04 488.52C578.387 486.52 579.107 484.68 580.2 483C581.293 481.293 582.733 479.933 584.52 478.92C586.333 477.88 588.453 477.373 590.88 477.4C592.907 477.4 594.693 477.827 596.24 478.68C597.787 479.507 598.947 480.613 599.72 482C600.52 483.387 600.787 484.907 600.52 486.56C600.333 488.08 599.76 489.467 598.8 490.72C597.867 491.973 596.76 493.08 595.48 494.04L589.12 498.88L599.44 498.92L598.36 506H573.96ZM600.564 501.16L620.484 478H626.644L621.844 506H613.844L615.044 498.96L616.044 498.52L617.724 488.8L611.444 495.76H621.364L622.244 494.64H628.044L626.924 501.2L600.564 501.16ZM650.163 478H656.843L634.203 511.96H627.243L650.163 478ZM657.17 485.24L658.33 478H681.61L664.09 506H655.69L669.21 485.24H657.17Z" fill="#E54C1A"/>
<path d="M263.501 405H263.499C256.043 405 250 414.526 250 426.276V479.724C250 491.474 256.043 501 263.499 501H263.501C270.957 501 277 491.474 277 479.724V426.276C277 414.526 270.957 405 263.501 405Z" fill="url(#paint5_linear_5_394)"/>
<path d="M301.502 380H301.498C290.729 380 282 393.891 282 411.027V488.973C282 506.109 290.729 520 301.498 520H301.502C312.271 520 321 506.109 321 488.973V411.027C321 393.891 312.271 380 301.502 380Z" fill="url(#paint6_linear_5_394)"/>
<path d="M376.061 357H344.939C334.479 357 326 367.187 326 379.753V521.247C326 533.813 334.479 544 344.939 544H376.061C386.521 544 395 533.813 395 521.247V379.753C395 367.187 386.521 357 376.061 357Z" fill="url(#paint7_linear_5_394)"/>
<path d="M994.508 496.396H994.511C1001.97 496.396 1008.01 486.87 1008.01 475.12V421.672C1008.01 409.922 1001.97 400.396 994.511 400.396H994.508C987.053 400.396 981.01 409.922 981.01 421.672V475.12C981.01 486.87 987.053 496.396 994.508 496.396Z" fill="url(#paint8_linear_5_394)"/>
<path d="M956.495 521.241H956.5C967.268 521.241 975.998 507.349 975.998 490.213V412.268C975.998 395.132 967.268 381.241 956.5 381.241H956.495C945.727 381.241 936.998 395.132 936.998 412.268V490.213C936.998 507.349 945.727 521.241 956.495 521.241Z" fill="url(#paint9_linear_5_394)"/>
<path d="M882.939 544H914.061C924.521 544 933 533.813 933 521.247V379.753C933 367.187 924.521 357 914.061 357H882.939C872.479 357 864 367.187 864 379.753V521.247C864 533.813 872.479 544 882.939 544Z" fill="url(#paint10_linear_5_394)"/>
<path d="M530.232 443.241H393.616C393.063 443.241 392.616 443.688 392.616 444.241V459.821C392.616 460.373 393.063 460.821 393.616 460.821H511.911C512.3 460.821 512.654 461.047 512.818 461.4L545.773 532.407C546.134 533.184 547.242 533.177 547.593 532.395L637.304 332.197C637.672 331.378 638.849 331.42 639.156 332.263L701.599 503.433C701.906 504.276 703.083 504.318 703.451 503.499L735.764 431.411C736.103 430.656 737.16 430.615 737.555 431.342L750.465 455.089C750.64 455.411 750.977 455.612 751.344 455.612H863.02C863.572 455.612 864.02 455.164 864.02 454.612V439.683C864.02 439.131 863.572 438.683 863.02 438.683H758.031C757.652 438.683 757.305 438.469 757.136 438.13L737.512 398.856C737.139 398.109 736.068 398.122 735.713 398.878L705.147 463.823C704.766 464.632 703.596 464.573 703.299 463.73L639.155 281.556C638.853 280.699 637.659 280.655 637.295 281.487L550.087 480.919C549.741 481.709 548.624 481.72 548.263 480.937L531.14 443.822C530.977 443.468 530.622 443.241 530.232 443.241Z" fill="url(#paint11_linear_5_394)"/>
<defs>
<linearGradient id="paint0_linear_5_394" x1="1186.01" y1="162.776" x2="811.419" y2="386.574" gradientUnits="userSpaceOnUse">
<stop offset="0.0237894" stop-color="#92979D"/>
<stop offset="0.405758" stop-color="#70767D"/>
</linearGradient>
<linearGradient id="paint1_linear_5_394" x1="306.496" y1="302.764" x2="645.934" y2="132.819" gradientUnits="userSpaceOnUse">
<stop offset="0.124638" stop-color="#E54C1A"/>
<stop offset="0.947314" stop-color="#9F2E09"/>
</linearGradient>
<linearGradient id="paint2_linear_5_394" x1="272.348" y1="19.5332" x2="39.8482" y2="310.437" gradientUnits="userSpaceOnUse">
<stop stop-color="#842406"/>
<stop offset="0.469714" stop-color="#DA4718"/>
</linearGradient>
<linearGradient id="paint3_linear_5_394" x1="-0.161561" y1="451.978" x2="242.928" y2="448.01" gradientUnits="userSpaceOnUse">
<stop stop-color="#2C3037" stop-opacity="0"/>
<stop offset="1" stop-color="#596169"/>
</linearGradient>
<linearGradient id="paint4_linear_5_394" x1="1252.8" y1="443.945" x2="1009.71" y2="447.913" gradientUnits="userSpaceOnUse">
<stop stop-color="#2C3037" stop-opacity="0"/>
<stop offset="1" stop-color="#596169"/>
</linearGradient>
<linearGradient id="paint5_linear_5_394" x1="275.976" y1="495.61" x2="229.186" y2="444.85" gradientUnits="userSpaceOnUse">
<stop offset="0.149038" stop-color="#ED440D" stop-opacity="0"/>
<stop offset="0.428163" stop-color="#ED440D" stop-opacity="0.259856"/>
<stop offset="0.672377" stop-color="#ED440D"/>
<stop offset="0.918269" stop-color="#9F2E09"/>
</linearGradient>
<linearGradient id="paint6_linear_5_394" x1="319.521" y1="512.139" x2="251.236" y2="438.766" gradientUnits="userSpaceOnUse">
<stop offset="0.149038" stop-color="#ED440D" stop-opacity="0"/>
<stop offset="0.428163" stop-color="#ED440D" stop-opacity="0.259856"/>
<stop offset="0.672377" stop-color="#ED440D"/>
<stop offset="0.918269" stop-color="#9F2E09"/>
</linearGradient>
<linearGradient id="paint7_linear_5_394" x1="392.383" y1="533.5" x2="306.353" y2="411.057" gradientUnits="userSpaceOnUse">
<stop offset="0.149038" stop-color="#ED440D" stop-opacity="0"/>
<stop offset="0.428163" stop-color="#ED440D" stop-opacity="0.259856"/>
<stop offset="0.672377" stop-color="#ED440D"/>
<stop offset="0.918269" stop-color="#9F2E09"/>
</linearGradient>
<linearGradient id="paint8_linear_5_394" x1="1004.73" y1="480.482" x2="961.218" y2="448.363" gradientUnits="userSpaceOnUse">
<stop stop-color="#242F47" stop-opacity="0.09"/>
<stop offset="0.529487" stop-color="#4F638C" stop-opacity="0.6"/>
<stop offset="0.828544" stop-color="#2F3C59" stop-opacity="0.916191"/>
<stop offset="0.966346" stop-color="#26324C"/>
</linearGradient>
<linearGradient id="paint9_linear_5_394" x1="971.258" y1="498.032" x2="907.987" y2="451.771" gradientUnits="userSpaceOnUse">
<stop stop-color="#242F47" stop-opacity="0.09"/>
<stop offset="0.529487" stop-color="#4F638C" stop-opacity="0.6"/>
<stop offset="0.828544" stop-color="#2F3C59" stop-opacity="0.916191"/>
<stop offset="0.966346" stop-color="#26324C"/>
</linearGradient>
<linearGradient id="paint10_linear_5_394" x1="924.615" y1="513" x2="835.971" y2="427.151" gradientUnits="userSpaceOnUse">
<stop stop-color="#242F47" stop-opacity="0.09"/>
<stop offset="0.529487" stop-color="#4F638C" stop-opacity="0.6"/>
<stop offset="0.828544" stop-color="#2F3C59" stop-opacity="0.916191"/>
<stop offset="0.966346" stop-color="#26324C"/>
</linearGradient>
<linearGradient id="paint11_linear_5_394" x1="325.582" y1="451.054" x2="930.631" y2="445.727" gradientUnits="userSpaceOnUse">
<stop offset="0.058958" stop-color="#565D65"/>
<stop offset="0.214094" stop-color="#A3A7AD"/>
<stop offset="0.312525" stop-color="#E94E1B"/>
<stop offset="0.451923" stop-color="#9D2F0B"/>
<stop offset="0.691868" stop-color="#ED440D"/>
<stop offset="0.8362" stop-color="#A3A7AD"/>
<stop offset="0.951557" stop-color="#565D65"/>
</linearGradient>
</defs>
</svg>
