<svg width="1191" height="463" viewBox="0 0 1191 463" fill="none" xmlns="http://www.w3.org/2000/svg">
<path d="M895.456 154.61L971.786 139.443C973.921 139.019 975.783 140.938 975.294 143.059L939.586 298.137H865.811C863.221 298.137 861.314 295.713 861.923 293.196L895.456 154.61Z" fill="url(#paint0_linear_0_1)"/>
<path d="M418.201 163.712H299.771L313.183 116.373H658.902L645.517 163.712H526.669L471.35 354.661H362.826L418.201 163.712Z" fill="url(#paint1_linear_0_1)"/>
<path d="M1046.78 166.252H982.417L990.997 125.24H1191L1182.44 166.252H1122.33L1090.33 295.92H1014.74L1046.78 166.252Z" fill="url(#paint2_linear_0_1)"/>
<path d="M371.003 229.633H150.579C147.269 229.666 143.984 229.193 140.917 228.243C137.85 227.293 135.064 225.884 132.722 224.1C130.38 222.315 128.529 220.191 127.279 217.853C126.03 215.515 125.406 213.009 125.445 210.485V172.213H249.177L265.007 114.817H125.445V76.5449C125.406 74.0199 126.03 71.5145 127.279 69.1763C128.529 66.838 130.38 64.7141 132.722 62.9297C135.064 61.1454 137.85 59.7365 140.917 58.7863C143.984 57.836 147.269 57.3635 150.579 57.3965H280.837L296.635 0.000830123H75.2739C65.1744 -0.0412874 55.1738 1.5197 45.9077 4.5846C27.9409 10.3941 13.6432 21.3095 6.04205 35.0198C2.0103 42.0771 -0.0472716 49.6983 0.000824117 57.3965V229.633C-0.0472716 237.331 2.0103 244.952 6.04205 252.01C13.6432 265.72 27.9409 276.635 45.9077 282.445C55.1714 285.518 65.1721 287.088 75.2739 287.053H355.173L371.003 229.633Z" fill="url(#paint3_linear_0_1)"/>
<path d="M858.368 230.512L758.341 229.984C757.455 229.979 756.671 230.558 756.415 231.406L738.731 290.046C738.474 290.899 737.682 291.48 736.791 291.468L655.56 290.413C654.249 290.396 653.308 289.143 653.659 287.879L690.808 153.824C692.292 147.961 694.071 143.179 696.151 138.683C700.074 129.949 707.451 122.995 716.722 119.294C721.503 117.341 726.664 116.347 731.875 116.374L885.749 120.742C887.005 120.777 887.918 121.949 887.644 123.176L880.369 155.81C880.165 156.725 879.354 157.375 878.417 157.375H785.785C784.077 157.354 782.382 157.655 780.799 158.261C779.217 158.866 777.779 159.764 776.57 160.9C775.362 162.037 774.407 163.39 773.762 164.88C773.157 166.278 772.836 167.769 772.816 169.277C772.813 169.474 772.788 169.67 772.733 169.859L766.492 191.399C766.121 192.678 767.081 193.956 768.413 193.956H865.652C866.932 193.956 867.883 195.142 867.604 196.392L860.331 228.948C860.126 229.866 859.309 230.517 858.368 230.512Z" fill="url(#paint4_linear_0_1)"/>
<path d="M215.182 390.591V372.929C215.182 372.929 3.2855e-05 371.789 0 378.626C-3.2855e-05 385.463 215.182 390.591 215.182 390.591Z" fill="url(#paint5_linear_0_1)"/>
<path d="M900.803 371.932V389.594C900.803 389.594 1115.98 390.733 1115.98 383.897C1115.98 377.06 900.803 371.932 900.803 371.932Z" fill="url(#paint6_linear_0_1)"/>
<path d="M234.755 344.697H234.752C228.11 344.697 222.726 352.804 222.726 362.805V408.295C222.726 418.295 228.11 426.403 234.752 426.403H234.755C241.396 426.403 246.78 418.295 246.78 408.295V362.805C246.78 352.804 241.396 344.697 234.755 344.697Z" fill="url(#paint7_linear_0_1)"/>
<path d="M268.609 323.419H268.606C259.012 323.419 251.235 335.242 251.235 349.827V416.166C251.235 430.75 259.012 442.574 268.606 442.574H268.609C278.203 442.574 285.98 430.75 285.98 416.166V349.827C285.98 335.242 278.203 323.419 268.609 323.419Z" fill="url(#paint8_linear_0_1)"/>
<path d="M335.035 303.844H307.308C297.989 303.844 290.435 312.514 290.435 323.209V443.634C290.435 454.33 297.989 463 307.308 463H335.035C344.353 463 351.907 454.33 351.907 443.634V323.209C351.907 312.514 344.353 303.844 335.035 303.844Z" fill="url(#paint9_linear_0_1)"/>
<path d="M886.012 422.484H886.015C892.656 422.484 898.041 414.377 898.041 404.376V358.886C898.041 348.885 892.656 340.778 886.015 340.778H886.012C879.37 340.778 873.986 348.885 873.986 358.886V404.376C873.986 414.377 879.37 422.484 886.012 422.484Z" fill="url(#paint10_linear_0_1)"/>
<path d="M852.146 443.63H852.15C861.743 443.63 869.521 431.807 869.521 417.222V350.883C869.521 336.298 861.743 324.475 852.15 324.475H852.146C842.552 324.475 834.775 336.298 834.775 350.883V417.222C834.775 431.807 842.552 443.63 852.146 443.63Z" fill="url(#paint11_linear_0_1)"/>
<path d="M786.614 463H814.34C823.659 463 831.213 454.33 831.213 443.634V323.209C831.213 312.514 823.659 303.844 814.34 303.844H786.614C777.295 303.844 769.741 312.514 769.741 323.209V443.634C769.741 454.33 777.295 463 786.614 463Z" fill="url(#paint12_linear_0_1)"/>
<path d="M472.329 377.244H350.783C350.231 377.244 349.783 377.691 349.783 378.244V391.206C349.783 391.758 350.231 392.206 350.783 392.206H456.006C456.389 392.206 456.738 392.424 456.906 392.769L486.139 452.942C486.507 453.698 487.587 453.691 487.944 452.929L567.675 282.951C568.05 282.153 569.2 282.195 569.515 283.019L624.97 428.244C625.285 429.068 626.435 429.11 626.81 428.312L655.412 367.353C655.757 366.619 656.785 366.579 657.187 367.284L668.558 387.267C668.736 387.58 669.068 387.773 669.428 387.773H768.759C769.311 387.773 769.759 387.325 769.759 386.773V374.364C769.759 373.812 769.311 373.364 768.759 373.364H675.388C675.015 373.364 674.674 373.158 674.501 372.828L657.145 339.643C656.765 338.918 655.723 338.931 655.362 339.665L628.323 394.549C627.935 395.337 626.792 395.277 626.488 394.453L569.514 239.871C569.205 239.033 568.037 238.989 567.666 239.8L490.166 409.114C489.813 409.883 488.724 409.894 488.356 409.132L473.229 377.809C473.062 377.463 472.712 377.244 472.329 377.244Z" fill="url(#paint13_linear_0_1)"/>
<path d="M506.96 444L520.8 431.44C521.547 430.72 522.253 430.027 522.92 429.36C523.613 428.693 524.2 428.013 524.68 427.32C525.187 426.627 525.493 425.867 525.6 425.04C525.653 424.533 525.6 424.053 525.44 423.6C525.307 423.12 525.027 422.733 524.6 422.44C524.2 422.147 523.653 422 522.96 422C522.16 421.973 521.453 422.187 520.84 422.64C520.253 423.067 519.76 423.64 519.36 424.36C518.96 425.053 518.68 425.787 518.52 426.56L511.04 426.52C511.387 424.52 512.107 422.68 513.2 421C514.293 419.293 515.733 417.933 517.52 416.92C519.333 415.88 521.453 415.373 523.88 415.4C525.907 415.4 527.693 415.827 529.24 416.68C530.787 417.507 531.947 418.613 532.72 420C533.52 421.387 533.787 422.907 533.52 424.56C533.333 426.08 532.76 427.467 531.8 428.72C530.867 429.973 529.76 431.08 528.48 432.04L522.12 436.88L532.44 436.92L531.36 444H506.96ZM533.564 439.16L553.484 416H559.644L554.844 444H546.844L548.044 436.96L549.044 436.52L550.724 426.8L544.444 433.76H554.364L555.244 432.64H561.044L559.924 439.2L533.564 439.16ZM583.163 416H589.843L567.203 449.96H560.243L583.163 416ZM590.17 423.24L591.33 416H614.61L597.09 444H588.69L602.21 423.24H590.17Z" fill="#E54C1A"/>
<defs>
<linearGradient id="paint0_linear_0_1" x1="939" y1="313.5" x2="875.17" y2="60.9919" gradientUnits="userSpaceOnUse">
<stop offset="0.0237894" stop-color="#192E5B"/>
<stop offset="0.600962" stop-color="#34569E"/>
</linearGradient>
<linearGradient id="paint1_linear_0_1" x1="273.058" y1="257.683" x2="569.773" y2="102.181" gradientUnits="userSpaceOnUse">
<stop offset="0.124638" stop-color="#E54C1A"/>
<stop offset="0.947314" stop-color="#9F2E09"/>
</linearGradient>
<linearGradient id="paint2_linear_0_1" x1="1086.71" y1="125.24" x2="1086.71" y2="295.92" gradientUnits="userSpaceOnUse">
<stop stop-color="#305199"/>
<stop offset="1" stop-color="#182C57"/>
</linearGradient>
<linearGradient id="paint3_linear_0_1" x1="242.636" y1="16.6248" x2="46.9315" y2="272.942" gradientUnits="userSpaceOnUse">
<stop stop-color="#842406"/>
<stop offset="0.469714" stop-color="#DA4718"/>
</linearGradient>
<linearGradient id="paint4_linear_0_1" x1="770.569" y1="116.373" x2="770.569" y2="291.488" gradientUnits="userSpaceOnUse">
<stop stop-color="#305199"/>
<stop offset="1" stop-color="#182C57"/>
</linearGradient>
<linearGradient id="paint5_linear_0_1" x1="-0.143935" y1="384.68" x2="216.42" y2="380.979" gradientUnits="userSpaceOnUse">
<stop stop-color="#2C3037" stop-opacity="0"/>
<stop offset="1" stop-color="#596169"/>
</linearGradient>
<linearGradient id="paint6_linear_0_1" x1="1116.13" y1="377.843" x2="899.565" y2="381.543" gradientUnits="userSpaceOnUse">
<stop stop-color="#2C3037" stop-opacity="0"/>
<stop offset="1" stop-color="#596169"/>
</linearGradient>
<linearGradient id="paint7_linear_0_1" x1="245.868" y1="421.815" x2="206.234" y2="376.807" gradientUnits="userSpaceOnUse">
<stop offset="0.149038" stop-color="#ED440D" stop-opacity="0"/>
<stop offset="0.428163" stop-color="#ED440D" stop-opacity="0.259856"/>
<stop offset="0.672377" stop-color="#ED440D"/>
<stop offset="0.918269" stop-color="#9F2E09"/>
</linearGradient>
<linearGradient id="paint8_linear_0_1" x1="284.662" y1="435.883" x2="226.795" y2="370.796" gradientUnits="userSpaceOnUse">
<stop offset="0.149038" stop-color="#ED440D" stop-opacity="0"/>
<stop offset="0.428163" stop-color="#ED440D" stop-opacity="0.259856"/>
<stop offset="0.672377" stop-color="#ED440D"/>
<stop offset="0.918269" stop-color="#9F2E09"/>
</linearGradient>
<linearGradient id="paint9_linear_0_1" x1="349.576" y1="454.063" x2="277.547" y2="346.753" gradientUnits="userSpaceOnUse">
<stop offset="0.149038" stop-color="#ED440D" stop-opacity="0"/>
<stop offset="0.428163" stop-color="#ED440D" stop-opacity="0.259856"/>
<stop offset="0.672377" stop-color="#ED440D"/>
<stop offset="0.918269" stop-color="#9F2E09"/>
</linearGradient>
<linearGradient id="paint10_linear_0_1" x1="895.117" y1="408.939" x2="857.62" y2="379.964" gradientUnits="userSpaceOnUse">
<stop stop-color="#242F47" stop-opacity="0.09"/>
<stop offset="0.529487" stop-color="#4F638C" stop-opacity="0.6"/>
<stop offset="0.828544" stop-color="#2F3C59" stop-opacity="0.916191"/>
<stop offset="0.966346" stop-color="#26324C"/>
</linearGradient>
<linearGradient id="paint11_linear_0_1" x1="865.298" y1="423.877" x2="810.748" y2="382.127" gradientUnits="userSpaceOnUse">
<stop stop-color="#242F47" stop-opacity="0.09"/>
<stop offset="0.529487" stop-color="#4F638C" stop-opacity="0.6"/>
<stop offset="0.828544" stop-color="#2F3C59" stop-opacity="0.916191"/>
<stop offset="0.966346" stop-color="#26324C"/>
</linearGradient>
<linearGradient id="paint12_linear_0_1" x1="823.743" y1="436.616" x2="748.266" y2="360.101" gradientUnits="userSpaceOnUse">
<stop stop-color="#242F47" stop-opacity="0.09"/>
<stop offset="0.529487" stop-color="#4F638C" stop-opacity="0.6"/>
<stop offset="0.828544" stop-color="#2F3C59" stop-opacity="0.916191"/>
<stop offset="0.966346" stop-color="#26324C"/>
</linearGradient>
<linearGradient id="paint13_linear_0_1" x1="290.062" y1="383.893" x2="829.099" y2="378.926" gradientUnits="userSpaceOnUse">
<stop offset="0.058958" stop-color="#565D65"/>
<stop offset="0.214094" stop-color="#A3A7AD"/>
<stop offset="0.312525" stop-color="#E94E1B"/>
<stop offset="0.451923" stop-color="#9D2F0B"/>
<stop offset="0.691868" stop-color="#ED440D"/>
<stop offset="0.8362" stop-color="#A3A7AD"/>
<stop offset="0.951557" stop-color="#565D65"/>
</linearGradient>
</defs>
</svg>
